<svg version="1.1" xmlns="http://www.w3.org/2000/svg" viewBox="81 700 880 640" width="880" height="640">
<path fill="rgb(53,165,212)" d="M 103.643 907.085 C 101.278 879.074 104.741 853.642 124.385 831.74 C 211.919 734.144 353.402 720.229 478.344 724.539 C 571.175 727.74 757.115 770.978 771.499 887.047 C 772.135 892.183 771.129 906.858 769.665 911.604 C 778.934 916.276 780.109 915.157 790.563 912.224 C 823.964 903.349 857.373 902.686 888.646 919.475 C 928.508 940.875 940.431 1003.17 921.753 1041.99 C 895.723 1116.9 816.199 1155.1 744.208 1173.22 C 727.053 1177.54 710.153 1179.84 693.005 1183.54 C 655.213 1244.73 593.155 1298.38 522.155 1313.78 C 515.934 1315.13 497.793 1319.08 491.825 1319.05 C 488.445 1319.55 485.052 1319.96 481.651 1320.29 C 400.244 1328.54 316.339 1315.36 251.975 1261.63 C 161.572 1186.15 118.911 1072.51 107.507 957.992 C 105.82 941.047 105.255 924.083 103.643 907.085 z M 762.01 1015.17 C 757.778 1027.4 755.56 1040.18 752.005 1052.53 C 745.932 1073.63 739.117 1096.41 730.528 1116.61 C 745.112 1114.2 758.108 1112.19 772.385 1108.1 C 797.161 1098.9 812.146 1091.65 833.804 1076.14 C 868.891 1051 908.37 991.447 848.569 967.342 C 842.821 965.025 836.193 964.045 829.98 965.357 C 799.172 969.991 795.558 983.291 776.185 1004.03 C 772.504 1007.96 766.438 1011.86 762.01 1015.17 z"/>
<path fill="rgb(249,230,185)" d="M 103.643 907.085 C 101.278 879.074 104.741 853.642 124.385 831.74 C 211.919 734.144 353.402 720.229 478.344 724.539 C 571.175 727.74 757.115 770.978 771.499 887.047 C 772.135 892.183 771.129 906.858 769.665 911.604 C 764.786 917.701 761.044 933.669 755.122 942.045 C 723.97 986.104 676.495 1008.59 627.903 1027.78 C 617.42 1032.53 590.623 1039.54 579.053 1042.15 C 482.223 1063.99 372.398 1062.83 276.581 1036.31 C 220.491 1020.78 159.403 993.353 123.851 945.503 C 115.093 933.715 111.365 920.67 104.258 908.146 L 103.643 907.085 z"/>
<path fill="rgb(201,125,58)" d="M 186.762 963.888 C 159.902 948.127 137.689 913.721 141.186 881.829 C 147.208 826.922 197.829 797.697 244.067 778.658 C 328.1 744.058 421.678 738.538 511.185 748.536 C 571.636 755.397 670.034 781.29 709.105 829.785 C 724.28 843.865 734.051 866.101 734.689 886.595 C 735.341 907.521 723.649 931.189 709.023 945.924 C 647.184 1008.22 536.401 1027.96 452.228 1029.89 C 376.537 1031.62 297.937 1020.85 229.247 988.561 C 214.992 981.86 198.955 973.472 186.762 963.888 z"/>
<path fill="rgb(160,89,37)" d="M 186.762 963.888 C 159.902 948.127 137.689 913.721 141.186 881.829 C 147.208 826.922 197.829 797.697 244.067 778.658 C 328.1 744.058 421.678 738.538 511.185 748.536 C 571.636 755.397 670.034 781.29 709.105 829.785 C 700.932 829.908 685.302 813.852 677.079 809.862 C 579.334 762.434 463.171 750.059 356.459 768.802 C 308.213 777.276 247.848 797.066 207.651 826.209 C 184.564 842.947 165.537 870.491 162.396 898.434 C 157.232 931.93 185.915 955.136 186.762 963.888 z"/>
<path fill="rgb(254,254,254)" d="M 372.089 789.398 C 381.172 788.702 391.814 788.922 401.035 788.891 L 401.055 803.999 C 327.031 803.25 397.022 859.049 328.422 881.143 C 386.225 904.838 347.627 928.224 366.347 949.045 C 373.951 957.502 389.345 958.53 400.032 959.129 L 400.087 975.897 C 394.202 975.427 387.701 975.245 381.75 974.97 C 381.5 974.961 381.25 974.963 381 974.943 C 290.573 967.854 338.695 925.253 313.835 898 C 305.443 888.801 292.739 888.298 281.164 887.924 L 280.918 873.91 C 293.092 872.988 307.33 871.916 315.474 861.329 C 327.948 845.115 316.008 821.957 330.096 805.698 C 340.737 793.418 356.872 791.023 372.089 789.398 z"/>
<path fill="rgb(254,254,254)" d="M 491.984 788.915 C 517.314 788.872 568.49 788.682 569.371 821.14 C 570.363 857.618 569.825 865.978 611.196 874.325 C 611.233 878.759 611.432 883.39 611.554 887.841 C 604.632 888.706 595.68 889.694 589.187 892.055 C 557.383 903.614 579.146 930.23 567.949 951.919 C 561.925 963.588 547.769 968.068 536.188 971.564 C 519.843 975.105 509.008 975.037 492.41 975.315 L 492.751 958.987 C 567.92 957.542 495.595 895.912 567.15 880.967 C 550.907 874.624 532.347 867.666 530.709 847.425 C 529.848 836.787 534.172 820.358 525.731 812.177 C 517.618 804.312 502.518 803.941 491.976 803.826 L 491.984 788.915 z"/>
<path fill="rgb(49,121,155)" d="M 790.563 912.224 C 823.964 903.349 857.373 902.686 888.646 919.475 C 928.508 940.875 940.431 1003.17 921.753 1041.99 C 895.723 1116.9 816.199 1155.1 744.208 1173.22 C 727.053 1177.54 710.153 1179.84 693.005 1183.54 C 655.213 1244.73 593.155 1298.38 522.155 1313.78 C 515.934 1315.13 497.793 1319.08 491.825 1319.05 C 493.638 1314.59 527.1 1283.73 534.075 1275.57 C 595.49 1203.71 624.453 1120.96 627.903 1027.78 C 676.495 1008.59 723.97 986.104 755.122 942.045 C 761.044 933.669 764.786 917.701 769.665 911.604 C 778.934 916.276 780.109 915.157 790.563 912.224 z M 762.01 1015.17 C 757.778 1027.4 755.56 1040.18 752.005 1052.53 C 745.932 1073.63 739.117 1096.41 730.528 1116.61 C 745.112 1114.2 758.108 1112.19 772.385 1108.1 C 797.161 1098.9 812.146 1091.65 833.804 1076.14 C 868.891 1051 908.37 991.447 848.569 967.342 C 842.821 965.025 836.193 964.045 829.98 965.357 C 799.172 969.991 795.558 983.291 776.185 1004.03 C 772.504 1007.96 766.438 1011.86 762.01 1015.17 z"/>
<path fill="rgb(53,165,212)" d="M 790.563 912.224 C 823.964 903.349 857.373 902.686 888.646 919.475 C 928.508 940.875 940.431 1003.17 921.753 1041.99 C 917.614 1035.32 920.056 1017.73 917.861 1008.68 C 903.734 950.388 851.012 935.14 796.471 950.396 C 794.418 937.546 793.488 924.987 790.563 912.224 z"/>
<path fill="rgb(114,194,228)" d="M 157.615 1020.37 C 162.41 1022.15 180.82 1035.28 187.535 1038.88 C 209.526 1050.65 231.504 1059.34 255.211 1066.83 C 260.657 1123.79 268.898 1168.9 297.277 1220.29 C 307.117 1238.11 318.707 1252.39 327.218 1271.23 C 317.132 1268 300.493 1258.15 292.029 1251.9 C 215.761 1195.56 172.795 1111.76 157.615 1020.37 z"/>
</svg>
