<svg version="1.1" xmlns="http://www.w3.org/2000/svg" style="display: block;" viewBox="81 700 1884 649" width="1884" height="649" preserveAspectRatio="none">
<path transform="translate(0,0)" fill="rgb(53,165,212)" d="M 103.643 907.085 C 101.278 879.074 104.741 853.642 124.385 831.74 C 211.919 734.144 353.402 720.229 478.344 724.539 C 571.175 727.74 757.115 770.978 771.499 887.047 C 772.135 892.183 771.129 906.858 769.665 911.604 C 778.934 916.276 780.109 915.157 790.563 912.224 C 823.964 903.349 857.373 902.686 888.646 919.475 C 928.508 940.875 940.431 1003.17 921.753 1041.99 C 895.723 1116.9 816.199 1155.1 744.208 1173.22 C 727.053 1177.54 710.153 1179.84 693.005 1183.54 C 655.213 1244.73 593.155 1298.38 522.155 1313.78 C 515.934 1315.13 497.793 1319.08 491.825 1319.05 C 488.445 1319.55 485.052 1319.96 481.651 1320.29 C 400.244 1328.54 316.339 1315.36 251.975 1261.63 C 161.572 1186.15 118.911 1072.51 107.507 957.992 C 105.82 941.047 105.255 924.083 103.643 907.085 z M 762.01 1015.17 C 757.778 1027.4 755.56 1040.18 752.005 1052.53 C 745.932 1073.63 739.117 1096.41 730.528 1116.61 C 745.112 1114.2 758.108 1112.19 772.385 1108.1 C 797.161 1098.9 812.146 1091.65 833.804 1076.14 C 868.891 1051 908.37 991.447 848.569 967.342 C 842.821 965.025 836.193 964.045 829.98 965.357 C 799.172 969.991 795.558 983.291 776.185 1004.03 C 772.504 1007.96 766.438 1011.86 762.01 1015.17 z"/>
<path transform="translate(0,0)" fill="rgb(249,230,185)" d="M 103.643 907.085 C 101.278 879.074 104.741 853.642 124.385 831.74 C 211.919 734.144 353.402 720.229 478.344 724.539 C 571.175 727.74 757.115 770.978 771.499 887.047 C 772.135 892.183 771.129 906.858 769.665 911.604 C 764.786 917.701 761.044 933.669 755.122 942.045 C 723.97 986.104 676.495 1008.59 627.903 1027.78 C 617.42 1032.53 590.623 1039.54 579.053 1042.15 C 482.223 1063.99 372.398 1062.83 276.581 1036.31 C 220.491 1020.78 159.403 993.353 123.851 945.503 C 115.093 933.715 111.365 920.67 104.258 908.146 L 103.643 907.085 z"/>
<path transform="translate(0,0)" fill="rgb(201,125,58)" d="M 186.762 963.888 C 159.902 948.127 137.689 913.721 141.186 881.829 C 147.208 826.922 197.829 797.697 244.067 778.658 C 328.1 744.058 421.678 738.538 511.185 748.536 C 571.636 755.397 670.034 781.29 709.105 829.785 C 724.28 843.865 734.051 866.101 734.689 886.595 C 735.341 907.521 723.649 931.189 709.023 945.924 C 647.184 1008.22 536.401 1027.96 452.228 1029.89 C 376.537 1031.62 297.937 1020.85 229.247 988.561 C 214.992 981.86 198.955 973.472 186.762 963.888 z"/>
<path transform="translate(0,0)" fill="rgb(160,89,37)" d="M 186.762 963.888 C 159.902 948.127 137.689 913.721 141.186 881.829 C 147.208 826.922 197.829 797.697 244.067 778.658 C 328.1 744.058 421.678 738.538 511.185 748.536 C 571.636 755.397 670.034 781.29 709.105 829.785 C 700.932 829.908 685.302 813.852 677.079 809.862 C 579.334 762.434 463.171 750.059 356.459 768.802 C 308.213 777.276 247.848 797.066 207.651 826.209 C 184.564 842.947 165.537 870.491 162.396 898.434 C 157.232 931.93 185.915 955.136 186.762 963.888 z"/>
<path transform="translate(0,0)" fill="rgb(254,254,254)" d="M 372.089 789.398 C 381.172 788.702 391.814 788.922 401.035 788.891 L 401.055 803.999 C 327.031 803.25 397.022 859.049 328.422 881.143 C 386.225 904.838 347.627 928.224 366.347 949.045 C 373.951 957.502 389.345 958.53 400.032 959.129 L 400.087 975.897 C 394.202 975.427 387.701 975.245 381.75 974.97 C 381.5 974.961 381.25 974.963 381 974.943 C 290.573 967.854 338.695 925.253 313.835 898 C 305.443 888.801 292.739 888.298 281.164 887.924 L 280.918 873.91 C 293.092 872.988 307.33 871.916 315.474 861.329 C 327.948 845.115 316.008 821.957 330.096 805.698 C 340.737 793.418 356.872 791.023 372.089 789.398 z"/>
<path transform="translate(0,0)" fill="rgb(254,254,254)" d="M 491.984 788.915 C 517.314 788.872 568.49 788.682 569.371 821.14 C 570.363 857.618 569.825 865.978 611.196 874.325 C 611.233 878.759 611.432 883.39 611.554 887.841 C 604.632 888.706 595.68 889.694 589.187 892.055 C 557.383 903.614 579.146 930.23 567.949 951.919 C 561.925 963.588 547.769 968.068 536.188 971.564 C 519.843 975.105 509.008 975.037 492.41 975.315 L 492.751 958.987 C 567.92 957.542 495.595 895.912 567.15 880.967 C 550.907 874.624 532.347 867.666 530.709 847.425 C 529.848 836.787 534.172 820.358 525.731 812.177 C 517.618 804.312 502.518 803.941 491.976 803.826 L 491.984 788.915 z"/>
<path transform="translate(0,0)" fill="rgb(49,121,155)" d="M 790.563 912.224 C 823.964 903.349 857.373 902.686 888.646 919.475 C 928.508 940.875 940.431 1003.17 921.753 1041.99 C 895.723 1116.9 816.199 1155.1 744.208 1173.22 C 727.053 1177.54 710.153 1179.84 693.005 1183.54 C 655.213 1244.73 593.155 1298.38 522.155 1313.78 C 515.934 1315.13 497.793 1319.08 491.825 1319.05 C 493.638 1314.59 527.1 1283.73 534.075 1275.57 C 595.49 1203.71 624.453 1120.96 627.903 1027.78 C 676.495 1008.59 723.97 986.104 755.122 942.045 C 761.044 933.669 764.786 917.701 769.665 911.604 C 778.934 916.276 780.109 915.157 790.563 912.224 z M 762.01 1015.17 C 757.778 1027.4 755.56 1040.18 752.005 1052.53 C 745.932 1073.63 739.117 1096.41 730.528 1116.61 C 745.112 1114.2 758.108 1112.19 772.385 1108.1 C 797.161 1098.9 812.146 1091.65 833.804 1076.14 C 868.891 1051 908.37 991.447 848.569 967.342 C 842.821 965.025 836.193 964.045 829.98 965.357 C 799.172 969.991 795.558 983.291 776.185 1004.03 C 772.504 1007.96 766.438 1011.86 762.01 1015.17 z"/>
<path transform="translate(0,0)" fill="rgb(53,165,212)" d="M 790.563 912.224 C 823.964 903.349 857.373 902.686 888.646 919.475 C 928.508 940.875 940.431 1003.17 921.753 1041.99 C 917.614 1035.32 920.056 1017.73 917.861 1008.68 C 903.734 950.388 851.012 935.14 796.471 950.396 C 794.418 937.546 793.488 924.987 790.563 912.224 z"/>
<path transform="translate(0,0)" fill="rgb(114,194,228)" d="M 157.615 1020.37 C 162.41 1022.15 180.82 1035.28 187.535 1038.88 C 209.526 1050.65 231.504 1059.34 255.211 1066.83 C 260.657 1123.79 268.898 1168.9 297.277 1220.29 C 307.117 1238.11 318.707 1252.39 327.218 1271.23 C 317.132 1268 300.493 1258.15 292.029 1251.9 C 215.761 1195.56 172.795 1111.76 157.615 1020.37 z"/>
<path transform="translate(0,0)" fill="currentColor" d="M 1296.15 955.386 C 1299.09 955.168 1302.05 955.068 1305 955.086 C 1332.22 955.445 1361.52 960.91 1381.28 981.118 C 1408.33 1008.76 1404.03 1053.28 1403.89 1088.96 L 1403.46 1157.48 C 1385.36 1157.61 1366.62 1157.99 1348.57 1157.55 L 1347.88 1137.14 C 1308.18 1169.05 1269.06 1173.33 1229.25 1139.71 C 1220.03 1128.04 1214.19 1117.54 1214.06 1102.05 C 1213.46 1032.46 1295.15 1035.65 1344.22 1037.08 C 1327.77 984.208 1280.01 998.504 1242.97 1018.35 C 1236.4 1006.67 1227.76 990.998 1222.66 978.759 C 1248.09 962.595 1266.71 959.255 1296.15 955.386 z M 1318.15 1119.34 C 1340.72 1108.98 1343.66 1097.3 1342.81 1073.58 C 1328.66 1072.95 1310.63 1072.57 1296.5 1073.22 C 1248.2 1086.39 1276.51 1133.45 1318.15 1119.34 z"/>
<path transform="translate(0,0)" fill="currentColor" d="M 1831.6 956.358 C 1833.63 956.269 1835.67 956.203 1837.71 956.158 C 1883.05 955.231 1922.74 972.881 1938.27 1018.04 C 1944.8 1037.04 1944.41 1055.19 1944.59 1074.98 L 1797.2 1075.1 C 1812.73 1123.76 1865.01 1125.21 1899.15 1093.83 C 1903.29 1097.55 1906.03 1100.63 1909.71 1104.71 C 1916.77 1112.92 1924.33 1120.29 1931.33 1128.87 C 1919.89 1145.73 1891.62 1157.55 1872.16 1160.65 C 1839.33 1165.88 1804.01 1159.22 1777.04 1139.26 C 1756.83 1124.46 1743.44 1102.13 1739.91 1077.34 C 1730.87 1012.27 1766.93 965.286 1831.6 956.358 z M 1794.8 1039.26 C 1810.12 1038.98 1825.45 1038.84 1840.77 1038.84 C 1856.65 1038.73 1873.23 1038.37 1889.04 1038.88 C 1881.75 1016.6 1868.85 998.328 1842.81 999.297 C 1816.13 1003.77 1803.97 1013.89 1794.8 1039.26 z"/>
<path transform="translate(0,0)" fill="currentColor" d="M 1009.85 887.004 C 1031.18 887.206 1051.38 887.514 1072.75 887.067 C 1072.21 897.378 1072.15 908.428 1072.24 918.762 C 1072.73 981.215 1071.03 1044.13 1072.55 1106.54 C 1110.44 1105.12 1156.57 1106.65 1195.1 1107.02 C 1195.44 1123.05 1195.43 1139.09 1195.07 1155.12 L 1194.43 1156.92 C 1190.23 1157.8 1147.93 1157.59 1141.63 1157.59 L 1010.01 1157.91 C 1010.54 1067.57 1008.59 977.298 1009.85 887.004 z"/>
<path transform="translate(0,0)" fill="currentColor" d="M 1456.25 912.021 L 1514.47 912.013 C 1515.09 928.267 1514.64 947.149 1514.74 963.668 C 1528.67 962.373 1548.84 963.119 1563.29 963.256 C 1562.75 977.761 1563.06 994.189 1563.01 1008.84 C 1548.78 1009.56 1528.56 1009.3 1514.24 1008.97 C 1513.86 1041.35 1506.61 1083.29 1524.76 1110.73 C 1528.11 1112.31 1532.29 1113.86 1535.79 1115.26 C 1543.33 1113.35 1554.04 1109.37 1561.64 1106.8 C 1565.06 1116.01 1568.26 1127.7 1571.14 1137.26 C 1572.56 1141.74 1574.02 1146.2 1575.51 1150.66 C 1560.15 1156.93 1548.28 1161.38 1531.46 1161.66 C 1512.21 1161.97 1489.56 1158.77 1475.48 1144.32 C 1450.28 1118.46 1453.91 1080.57 1454.69 1047.51 C 1454.99 1034.92 1454.54 1022.52 1454.57 1010.05 L 1426.44 1009.76 L 1426.32 964.048 L 1456.11 964.131 L 1456.25 912.021 z"/>
<path transform="translate(0,0)" fill="currentColor" d="M 1608.92 912.039 L 1668.74 912.075 L 1668.89 964.083 C 1684.46 963.719 1701.19 964.074 1716.84 964.129 C 1716.51 978.984 1716.69 994.38 1716.55 1009.32 C 1703.78 1009.6 1679.12 1010.4 1667.03 1009.11 C 1667.26 1025.12 1667.65 1041.24 1666.9 1058.53 C 1666 1079.13 1666.04 1118.99 1697.94 1113.69 C 1701.04 1113.17 1710.96 1108.7 1714.28 1107.33 C 1717.81 1116.36 1721.54 1128.06 1724.96 1137.5 L 1729.79 1151.24 C 1697.93 1161.3 1660.2 1171.18 1631.27 1146.16 C 1606.41 1124.67 1609.22 1086.53 1609.48 1056.46 C 1609.76 1040.72 1609.59 1024.97 1608.99 1009.24 L 1579.79 1008.95 L 1580.19 964.019 C 1589.85 964.093 1599.51 964.115 1609.17 964.084 C 1609.48 950.026 1610.45 925.467 1608.92 912.039 z"/>
</svg>